<svg xmlns="http://www.w3.org/2000/svg" width="158.482" height="40.14" viewBox="0 0 158.482 40.14">
  <g id="Warstwa_x0020_1" transform="translate(0 0.01)">
    <path id="Path_1" data-name="Path 1" d="M322.37,8.622a3.941,3.941,0,1,0-4-3.939A3.917,3.917,0,0,0,322.37,8.622Z" transform="translate(-222.702 -0.525)" fill="#fefefe" fill-rule="evenodd"/>
    <path id="Path_2" data-name="Path 2" d="M327.259,65.856V37.88H320.6V65.856Z" transform="translate(-224.262 -26.504)" fill="#fefefe" fill-rule="evenodd"/>
    <path id="Path_3" data-name="Path 3" d="M351.368,32.2c0,6.328,3,9.493,9.048,9.493a15.376,15.376,0,0,0,3.444-.334V35.415a10.3,10.3,0,0,1-2.332.222c-2.443,0-3.5-1.109-3.5-4.162V18.985h6.163V12.936H358.03V2.22h-6.662V12.936h-3.5v6.049h3.5Z" transform="translate(-243.337 -1.56)" fill="#fefefe" fill-rule="evenodd"/>
    <path id="Path_4" data-name="Path 4" d="M407.11,50.4a13.868,13.868,0,0,0,4.108,10.493,14.916,14.916,0,0,0,10.716,3.939,15.521,15.521,0,0,0,11.77-5l-4-3.885a10.3,10.3,0,0,1-7.551,3.221c-4.943,0-8.216-2.888-8.435-7.329h21.759c.057-.721.111-1.5.111-2.329a13.787,13.787,0,0,0-3.885-9.991,13.008,13.008,0,0,0-9.937-4.054A13.993,13.993,0,0,0,407.11,50.179Zm6.77-3.218a6.041,6.041,0,0,1,2.5-4.294,8.659,8.659,0,0,1,5.385-1.758,7.223,7.223,0,0,1,4.943,1.812,5.4,5.4,0,0,1,2.109,4.24H413.883Z" transform="translate(-284.776 -24.819)" fill="#fefefe" fill-rule="evenodd"/>
    <path id="Path_5" data-name="Path 5" d="M72.89,2.668a1.05,1.05,0,0,1,.2-.667.674.674,0,0,1,.6-.27H75.3a.649.649,0,0,1,.586.27,1.1,1.1,0,0,1,.183.667V19.543H88.041V2.668A1.1,1.1,0,0,1,88.224,2a.687.687,0,0,1,.616-.27h1.593a.7.7,0,0,1,.586.249,1.072,1.072,0,0,1,.2.688V39.833a1.04,1.04,0,0,1-.21.688.81.81,0,0,1-.634.249H88.813a.688.688,0,0,1-.586-.249,1.138,1.138,0,0,1-.183-.688v-17.4H76.072V39.814a1.224,1.224,0,0,1-.174.688.632.632,0,0,1-.6.27H73.689a.674.674,0,0,1-.6-.27,1.111,1.111,0,0,1-.2-.7V2.671Z" transform="translate(-50.987 -1.217)" fill="#fefefe" fill-rule="evenodd"/>
    <path id="Path_6" data-name="Path 6" d="M3.179,31.395a5.975,5.975,0,0,0,.433,2.275,5.665,5.665,0,0,0,1.226,1.842,5.875,5.875,0,0,0,1.818,1.265,5.506,5.506,0,0,0,2.266.463,5.812,5.812,0,0,0,2.284-.454,5.459,5.459,0,0,0,1.851-1.244,5.877,5.877,0,0,0,1.689-4.087V8.755a6.05,6.05,0,0,0-1.689-4.192,5.744,5.744,0,0,0-1.824-1.274,5.484,5.484,0,0,0-2.257-.463A5.626,5.626,0,0,0,4.832,4.564,5.9,5.9,0,0,0,3.606,6.451a6.185,6.185,0,0,0-.433,2.3V31.4ZM0,8.686A8.415,8.415,0,0,1,.7,5.228,8.651,8.651,0,0,1,2.641,2.46,8.865,8.865,0,0,1,5.505.636,9.3,9.3,0,0,1,8.994-.01a9.1,9.1,0,0,1,3.435.646A8.672,8.672,0,0,1,15.271,2.46a8.973,8.973,0,0,1,1.938,2.768,8.282,8.282,0,0,1,.721,3.459v22.8a8.183,8.183,0,0,1-.721,3.444,8.65,8.65,0,0,1-1.947,2.737A9.036,9.036,0,0,1,12.4,39.484a9.232,9.232,0,0,1-3.462.646,9.054,9.054,0,0,1-3.459-.664,8.959,8.959,0,0,1-2.843-1.824A8.475,8.475,0,0,1,.706,34.9,8.224,8.224,0,0,1,0,31.491V8.686Z" transform="translate(0 0)" fill="#fefefe" fill-rule="evenodd"/>
    <path id="Path_7" data-name="Path 7" d="M505.724,108.06a3.833,3.833,0,1,1-3.834,3.831,3.831,3.831,0,0,1,3.834-3.831Z" transform="translate(-351.076 -75.596)" fill="#24cee5" fill-rule="evenodd"/>
    <path id="Path_8" data-name="Path 8" d="M147.13,2.668a1.05,1.05,0,0,1,.2-.667.674.674,0,0,1,.6-.27h1.611a.649.649,0,0,1,.586.27,1.1,1.1,0,0,1,.183.667V19.543h11.972V2.668A1.1,1.1,0,0,1,162.464,2a.687.687,0,0,1,.616-.27h1.593a.7.7,0,0,1,.586.249,1.072,1.072,0,0,1,.2.688V39.833a1.04,1.04,0,0,1-.21.688.81.81,0,0,1-.634.249h-1.563a.688.688,0,0,1-.586-.249,1.138,1.138,0,0,1-.183-.688v-17.4H150.312V39.814a1.224,1.224,0,0,1-.174.688.632.632,0,0,1-.6.27h-1.611a.674.674,0,0,1-.6-.27,1.111,1.111,0,0,1-.2-.7V2.671Z" transform="translate(-102.918 -1.217)" fill="#fefefe" fill-rule="evenodd"/>
    <path id="Path_9" data-name="Path 9" d="M213.51,31.2c2.443,5.493,7.714,8.825,14.877,8.825,8.828,0,13.549-4.6,13.549-11.434a9.8,9.8,0,0,0-2.446-6.941c-1.608-1.719-4.219-3.329-7.882-4.829l-2.278-.889-2-.775c-.721-.388-2.275-1.055-2.885-1.5a4.209,4.209,0,0,1-1.611-3.329c0-2.386,2.221-4.108,5.277-4.108A7.673,7.673,0,0,1,235,9.661l4.943-3.387C237.276,2.109,233.279,0,228.006,0a12.845,12.845,0,0,0-8.549,2.888,9.455,9.455,0,0,0-3.444,7.548,9.24,9.24,0,0,0,3.275,7.608,25.713,25.713,0,0,0,7.828,4.108,21.758,21.758,0,0,1,5.664,2.662A4.264,4.264,0,0,1,235,28.757c0,2.5-1.719,5.051-6.554,5.051a10.091,10.091,0,0,1-9.712-5.884L213.519,31.2Z" transform="translate(-149.352 -0.007)" fill="#fefefe" fill-rule="evenodd"/>
  </g>
</svg>
