<svg xmlns="http://www.w3.org/2000/svg" width="755.418" height="201.061" viewBox="0 0 755.418 201.061">
  <g id="Warstwa_x0020_1" transform="translate(0 0.01)" opacity="0.09">
    <path id="Path_1" data-name="Path 1" d="M338.4,40.221a19.619,19.619,0,0,0,19.733-19.733A19.884,19.884,0,1,0,338.4,40.221Z" transform="translate(160.832 0.379)" fill="#fefefe" fill-rule="evenodd"/>
    <path id="Path_2" data-name="Path 2" d="M353.955,178.012V37.88H320.6V178.012Z" transform="translate(161.959 19.141)" fill="#fefefe" fill-rule="evenodd"/>
    <path id="Path_3" data-name="Path 3" d="M365.39,152.376c0,31.7,15.007,47.548,45.321,47.548a77.018,77.018,0,0,0,17.249-1.671V168.5a51.564,51.564,0,0,1-11.68,1.114c-12.237,0-17.52-5.554-17.52-20.847V86.194h30.871v-30.3H398.76V2.22H365.39V55.894H347.87v30.3h17.52Z" transform="translate(175.735 1.127)" fill="#fefefe" fill-rule="evenodd"/>
    <path id="Path_4" data-name="Path 4" d="M407.11,110.262c0,21.976,6.939,39.5,20.576,52.561s31.7,19.733,53.674,19.733c23.631,0,43.108-8.339,58.958-25.031l-20.034-19.462c-10.852,10.852-23.36,16.135-37.825,16.135-24.76,0-41.152-14.465-42.25-36.711H549.2c.286-3.612.557-7.511.557-11.665,0-19.928-6.4-36.485-19.462-50.047-12.794-13.637-29.471-20.3-49.776-20.3-21.4,0-38.924,6.668-52.832,20.3-13.637,13.562-20.576,31.232-20.576,53.373Zm33.911-16.12q1.264-12.8,12.523-21.509a43.374,43.374,0,0,1,26.973-8.805,36.179,36.179,0,0,1,24.76,9.076c6.939,5.81,10.566,12.99,10.566,21.238H441.036Z" transform="translate(205.661 17.924)" fill="#fefefe" fill-rule="evenodd"/>
    <path id="Path_5" data-name="Path 5" d="M72.89,6.426A5.259,5.259,0,0,1,73.9,3.085a3.377,3.377,0,0,1,3-1.355h8.068A3.251,3.251,0,0,1,87.9,3.085a5.517,5.517,0,0,1,.918,3.341V90.957h59.966V6.426a5.516,5.516,0,0,1,.918-3.341,3.442,3.442,0,0,1,3.086-1.355h7.977A3.523,3.523,0,0,1,163.7,2.979a5.37,5.37,0,0,1,1.008,3.447v186.16a5.211,5.211,0,0,1-1.054,3.447,4.057,4.057,0,0,1-3.176,1.249h-7.827a3.445,3.445,0,0,1-2.935-1.249,5.7,5.7,0,0,1-.918-3.447v-87.15H88.83V192.5a6.131,6.131,0,0,1-.873,3.447,3.165,3.165,0,0,1-3,1.355H76.894a3.377,3.377,0,0,1-3-1.355,5.564,5.564,0,0,1-1.008-3.492V6.441Z" transform="translate(36.822 0.879)" fill="#fefefe" fill-rule="evenodd"/>
    <path id="Path_6" data-name="Path 6" d="M15.925,157.3a29.928,29.928,0,0,0,2.167,11.394,28.378,28.378,0,0,0,6.141,9.227,29.43,29.43,0,0,0,9.106,6.337,27.579,27.579,0,0,0,11.349,2.318A29.113,29.113,0,0,0,56.128,184.3a27.344,27.344,0,0,0,9.272-6.231,29.436,29.436,0,0,0,8.459-20.47V43.9a30.306,30.306,0,0,0-8.459-21,28.774,28.774,0,0,0-9.136-6.382A27.468,27.468,0,0,0,44.96,14.2,28.179,28.179,0,0,0,24.2,22.9a29.542,29.542,0,0,0-6.141,9.452A30.982,30.982,0,0,0,15.895,43.9V157.311ZM0,43.55A42.15,42.15,0,0,1,3.522,26.225,43.335,43.335,0,0,1,13.23,12.363,44.405,44.405,0,0,1,27.575,3.226,46.607,46.607,0,0,1,45.05-.01a45.585,45.585,0,0,1,17.2,3.236,43.44,43.44,0,0,1,14.239,9.136A44.947,44.947,0,0,1,86.2,26.225,41.486,41.486,0,0,1,89.814,43.55V157.777A40.991,40.991,0,0,1,86.2,175.027a43.33,43.33,0,0,1-9.754,13.712A45.261,45.261,0,0,1,62.1,197.815a46.241,46.241,0,0,1-17.34,3.236,45.35,45.35,0,0,1-17.325-3.326A44.875,44.875,0,0,1,13.2,188.588a42.453,42.453,0,0,1-9.663-13.712,41.2,41.2,0,0,1-3.522-17.1V43.55Z" transform="translate(0 0)" fill="#fefefe" fill-rule="evenodd"/>
    <path id="Path_8" data-name="Path 8" d="M147.13,6.426a5.258,5.258,0,0,1,1.008-3.341,3.377,3.377,0,0,1,3-1.355H159.2a3.251,3.251,0,0,1,2.935,1.355,5.516,5.516,0,0,1,.918,3.341V90.957h59.966V6.426a5.516,5.516,0,0,1,.918-3.341,3.441,3.441,0,0,1,3.086-1.355H235a3.523,3.523,0,0,1,2.935,1.249,5.37,5.37,0,0,1,1.008,3.447v186.16a5.211,5.211,0,0,1-1.054,3.447,4.057,4.057,0,0,1-3.176,1.249h-7.827a3.445,3.445,0,0,1-2.935-1.249,5.7,5.7,0,0,1-.918-3.447v-87.15H163.07V192.5a6.131,6.131,0,0,1-.873,3.447,3.165,3.165,0,0,1-3,1.355h-8.068a3.377,3.377,0,0,1-3-1.355,5.563,5.563,0,0,1-1.008-3.492V6.441Z" transform="translate(74.326 0.879)" fill="#fefefe" fill-rule="evenodd"/>
    <path id="Path_9" data-name="Path 9" d="M213.51,156.282c12.237,27.515,38.638,44.207,74.521,44.207,44.222,0,67.868-23.059,67.868-57.272,0-14.465-4.184-26.145-12.252-34.77-8.053-8.61-21.133-16.677-39.481-24.188L292.757,79.8l-10.009-3.883c-3.612-1.942-11.394-5.283-14.45-7.511-4.726-4.726-8.068-8.61-8.068-16.677,0-11.951,11.123-20.576,26.431-20.576,15.578,0,26.973,5.84,34.484,17.234l24.76-16.963C332.554,10.566,312.535,0,286.12,0,269.156,0,254.963,4.726,243.3,14.465c-11.409,9.723-17.249,22.246-17.249,37.81,0,16.406,5.283,28.929,16.406,38.111,11.123,8.9,21.4,13.908,39.21,20.576,14.465,5.283,20.3,7.782,28.373,13.336,8.068,5.283,11.123,11.123,11.123,19.748,0,12.508-8.61,25.3-32.828,25.3-22.518,0-38.638-9.738-48.647-29.471l-26.13,16.406Z" transform="translate(107.86 0.005)" fill="#fefefe" fill-rule="evenodd"/>
  </g>
</svg>
