<svg xmlns="http://www.w3.org/2000/svg" xmlns:xlink="http://www.w3.org/1999/xlink" width="30" height="30" viewBox="0 0 30 30">
  <defs>
    <linearGradient id="linear-gradient" x1="0.85" y1="0.871" x2="0.061" y2="0.046" gradientUnits="objectBoundingBox">
      <stop offset="0" stop-color="#24cee5"/>
      <stop offset="1" stop-color="#0041ff"/>
    </linearGradient>
  </defs>
  <g id="surface33172580" transform="translate(-0.375 -0.375)">
    <path id="Path_12" data-name="Path 12" d="M15.375.375A14.995,14.995,0,0,0,9.892,29.328c-.023-.512-.023-3.169,1.825-11.094a24.656,24.656,0,0,0-.1-4.678c0-2.492,1.294-3.018,2.053-3.018,1.079,0,2.566.412,2.566,2.149A2.564,2.564,0,0,1,14.616,15.2a18.425,18.425,0,0,0-.252,1.921,2.469,2.469,0,0,0,2.744,2.954c3.7,0,4.276-5.145,4.276-6.563A5.882,5.882,0,0,0,15.5,7.591c-5.931,0-6.951,5.314-6.951,6.732a11.635,11.635,0,0,0,.279,2.136c1.12.183,1.006,1.715.526,2.149-.531.48-3.27,1.052-3.27-4.957,0-5.721,5.1-8.671,9.576-8.671,4.262,0,8.9,2.941,8.9,8.6,0,5.058-3.631,9.037-7.45,9.037a4.436,4.436,0,0,1-3.508-1.889c0,1.77-3.247,7.843-3.663,8.616A15,15,0,1,0,15.375.375Zm0,0" fill="url(#linear-gradient)"/>
  </g>
</svg>
